<svg width="26" height="26" viewBox="0 0 26 26" fill="none" xmlns="http://www.w3.org/2000/svg">
<g id="arrow-right-solid 1">
<path id="Vector" d="M0.545534 11.8523C-0.179913 12.4871 -0.179913 13.518 0.545534 14.1527L9.83125 22.2777C10.5567 22.9125 11.7348 22.9125 12.4603 22.2777C13.1857 21.643 13.1857 20.6121 12.4603 19.9773L6.3375 14.625L24.1429 14.625C25.1701 14.625 26 13.8988 26 13C26 12.1012 25.1701 11.375 24.1429 11.375L6.3433 11.375L12.4545 6.02266C13.1799 5.38789 13.1799 4.35703 12.4545 3.72226C11.729 3.0875 10.5509 3.0875 9.82545 3.72226L0.53973 11.8473L0.545534 11.8523Z" fill="#505050"/>
</g>
</svg>
