<svg width="19" height="22" viewBox="0 0 19 22" fill="none" xmlns="http://www.w3.org/2000/svg">
<g id="lock-solid 1" clip-path="url(#clip0_7_187)">
<path id="Vector" d="M6.10714 6.1875V8.25H12.8929V6.1875C12.8929 4.28828 11.3746 2.75 9.5 2.75C7.62545 2.75 6.10714 4.28828 6.10714 6.1875ZM3.39286 8.25V6.1875C3.39286 2.77148 6.12835 0 9.5 0C12.8717 0 15.6071 2.77148 15.6071 6.1875V8.25H16.2857C17.7828 8.25 19 9.4832 19 11V19.25C19 20.7668 17.7828 22 16.2857 22H2.71429C1.21719 22 0 20.7668 0 19.25V11C0 9.4832 1.21719 8.25 2.71429 8.25H3.39286Z" fill="#808080"/>
</g>
<defs>
<clipPath id="clip0_7_187">
<rect width="19" height="22" fill="white"/>
</clipPath>
</defs>
</svg>
